<mxfile host="65bd71144e">
    <diagram name="PÃ¡gina-1" id="bS55A9_ovIKY-Wd1ajT8">
        <mxGraphModel dx="1386" dy="779" grid="1" gridSize="10" guides="1" tooltips="1" connect="1" arrows="1" fold="1" page="1" pageScale="1" pageWidth="827" pageHeight="1169" math="0" shadow="0">
            <root>
                <mxCell id="0"/>
                <mxCell id="1" parent="0"/>
                <mxCell id="ljHHKFZJiycTz36-ZPhy-1" value="Main" style="swimlane;fontStyle=1;align=center;verticalAlign=top;childLayout=stackLayout;horizontal=1;startSize=26;horizontalStack=0;resizeParent=1;resizeParentMax=0;resizeLast=0;collapsible=1;marginBottom=0;whiteSpace=wrap;html=1;" parent="1" vertex="1">
                    <mxGeometry x="40" y="80" width="175" height="76" as="geometry"/>
                </mxCell>
                <mxCell id="18" value="&lt;p&gt;-main(&lt;font style=&quot;font-size: 12px;&quot;&gt;String&lt;span style=&quot;background-color: rgb(40, 44, 52);&quot;&gt;[ ] &lt;/span&gt;&lt;span style=&quot;font-style: italic;&quot;&gt;args&lt;/span&gt;&lt;/font&gt;&lt;span style=&quot;background-color: initial;&quot;&gt;): void&lt;/span&gt;&lt;/p&gt;" style="text;html=1;align=center;verticalAlign=middle;resizable=0;points=[];autosize=1;strokeColor=none;fillColor=none;" vertex="1" parent="ljHHKFZJiycTz36-ZPhy-1">
                    <mxGeometry y="26" width="175" height="50" as="geometry"/>
                </mxCell>
                <mxCell id="ljHHKFZJiycTz36-ZPhy-3" value="Jugador" style="swimlane;fontStyle=1;align=center;verticalAlign=top;childLayout=stackLayout;horizontal=1;startSize=26;horizontalStack=0;resizeParent=1;resizeParentMax=0;resizeLast=0;collapsible=1;marginBottom=0;whiteSpace=wrap;html=1;" parent="1" vertex="1">
                    <mxGeometry x="250" y="80" width="160" height="530" as="geometry"/>
                </mxCell>
                <mxCell id="ljHHKFZJiycTz36-ZPhy-4" value="- nombre: String" style="text;strokeColor=none;fillColor=none;align=left;verticalAlign=top;spacingLeft=4;spacingRight=4;overflow=hidden;rotatable=0;points=[[0,0.5],[1,0.5]];portConstraint=eastwest;whiteSpace=wrap;html=1;" parent="ljHHKFZJiycTz36-ZPhy-3" vertex="1">
                    <mxGeometry y="26" width="160" height="26" as="geometry"/>
                </mxCell>
                <mxCell id="ljHHKFZJiycTz36-ZPhy-5" value="- getNombre(): String" style="text;strokeColor=none;fillColor=none;align=left;verticalAlign=top;spacingLeft=4;spacingRight=4;overflow=hidden;rotatable=0;points=[[0,0.5],[1,0.5]];portConstraint=eastwest;whiteSpace=wrap;html=1;" parent="ljHHKFZJiycTz36-ZPhy-3" vertex="1">
                    <mxGeometry y="52" width="160" height="26" as="geometry"/>
                </mxCell>
                <mxCell id="ljHHKFZJiycTz36-ZPhy-6" value="- getPuntuacion(): double" style="text;strokeColor=none;fillColor=none;align=left;verticalAlign=top;spacingLeft=4;spacingRight=4;overflow=hidden;rotatable=0;points=[[0,0.5],[1,0.5]];portConstraint=eastwest;whiteSpace=wrap;html=1;" parent="ljHHKFZJiycTz36-ZPhy-3" vertex="1">
                    <mxGeometry y="78" width="160" height="26" as="geometry"/>
                </mxCell>
                <mxCell id="ljHHKFZJiycTz36-ZPhy-7" value="- setPuntuacion(double puntuacion): void" style="text;strokeColor=none;fillColor=none;align=left;verticalAlign=top;spacingLeft=4;spacingRight=4;overflow=hidden;rotatable=0;points=[[0,0.5],[1,0.5]];portConstraint=eastwest;whiteSpace=wrap;html=1;" parent="ljHHKFZJiycTz36-ZPhy-3" vertex="1">
                    <mxGeometry y="104" width="160" height="36" as="geometry"/>
                </mxCell>
                <mxCell id="ljHHKFZJiycTz36-ZPhy-8" value="- buscarJugador(String nombre): boolean" style="text;strokeColor=none;fillColor=none;align=left;verticalAlign=top;spacingLeft=4;spacingRight=4;overflow=hidden;rotatable=0;points=[[0,0.5],[1,0.5]];portConstraint=eastwest;whiteSpace=wrap;html=1;" parent="ljHHKFZJiycTz36-ZPhy-3" vertex="1">
                    <mxGeometry y="140" width="160" height="40" as="geometry"/>
                </mxCell>
                <mxCell id="ljHHKFZJiycTz36-ZPhy-9" value="- darAlta(Jugador jugador): boolean" style="text;strokeColor=none;fillColor=none;align=left;verticalAlign=top;spacingLeft=4;spacingRight=4;overflow=hidden;rotatable=0;points=[[0,0.5],[1,0.5]];portConstraint=eastwest;whiteSpace=wrap;html=1;" parent="ljHHKFZJiycTz36-ZPhy-3" vertex="1">
                    <mxGeometry y="180" width="160" height="40" as="geometry"/>
                </mxCell>
                <mxCell id="ljHHKFZJiycTz36-ZPhy-10" value="- darBaja(String nombre): boolean" style="text;strokeColor=none;fillColor=none;align=left;verticalAlign=top;spacingLeft=4;spacingRight=4;overflow=hidden;rotatable=0;points=[[0,0.5],[1,0.5]];portConstraint=eastwest;whiteSpace=wrap;html=1;" parent="ljHHKFZJiycTz36-ZPhy-3" vertex="1">
                    <mxGeometry y="220" width="160" height="40" as="geometry"/>
                </mxCell>
                <mxCell id="ljHHKFZJiycTz36-ZPhy-11" value="- darPuntuacion(String nombre, double puntuacion): void" style="text;strokeColor=none;fillColor=none;align=left;verticalAlign=top;spacingLeft=4;spacingRight=4;overflow=hidden;rotatable=0;points=[[0,0.5],[1,0.5]];portConstraint=eastwest;whiteSpace=wrap;html=1;" parent="ljHHKFZJiycTz36-ZPhy-3" vertex="1">
                    <mxGeometry y="260" width="160" height="60" as="geometry"/>
                </mxCell>
                <mxCell id="ljHHKFZJiycTz36-ZPhy-12" value="- mostrarJugadores(): void" style="text;strokeColor=none;fillColor=none;align=left;verticalAlign=top;spacingLeft=4;spacingRight=4;overflow=hidden;rotatable=0;points=[[0,0.5],[1,0.5]];portConstraint=eastwest;whiteSpace=wrap;html=1;" parent="ljHHKFZJiycTz36-ZPhy-3" vertex="1">
                    <mxGeometry y="320" width="160" height="40" as="geometry"/>
                </mxCell>
                <mxCell id="ljHHKFZJiycTz36-ZPhy-13" value="- mostrarJugadoresPorPuntuacion(): void" style="text;strokeColor=none;fillColor=none;align=left;verticalAlign=top;spacingLeft=4;spacingRight=4;overflow=hidden;rotatable=0;points=[[0,0.5],[1,0.5]];portConstraint=eastwest;whiteSpace=wrap;html=1;" parent="ljHHKFZJiycTz36-ZPhy-3" vertex="1">
                    <mxGeometry y="360" width="160" height="70" as="geometry"/>
                </mxCell>
                <mxCell id="ljHHKFZJiycTz36-ZPhy-14" value="- compare(Jugador j1, Jugador j2): int" style="text;strokeColor=none;fillColor=none;align=left;verticalAlign=top;spacingLeft=4;spacingRight=4;overflow=hidden;rotatable=0;points=[[0,0.5],[1,0.5]];portConstraint=eastwest;whiteSpace=wrap;html=1;" parent="ljHHKFZJiycTz36-ZPhy-3" vertex="1">
                    <mxGeometry y="430" width="160" height="50" as="geometry"/>
                </mxCell>
                <mxCell id="ljHHKFZJiycTz36-ZPhy-15" value="- Jugador(String nombre, double puntuacion): " style="text;strokeColor=none;fillColor=none;align=left;verticalAlign=top;spacingLeft=4;spacingRight=4;overflow=hidden;rotatable=0;points=[[0,0.5],[1,0.5]];portConstraint=eastwest;whiteSpace=wrap;html=1;" parent="ljHHKFZJiycTz36-ZPhy-3" vertex="1">
                    <mxGeometry y="480" width="160" height="50" as="geometry"/>
                </mxCell>
                <mxCell id="12" value="Emparejamiento" style="swimlane;fontStyle=1;align=center;verticalAlign=top;childLayout=stackLayout;horizontal=1;startSize=26;horizontalStack=0;resizeParent=1;resizeParentMax=0;resizeLast=0;collapsible=1;marginBottom=0;whiteSpace=wrap;html=1;" vertex="1" parent="1">
                    <mxGeometry x="430" y="80" width="250" height="196" as="geometry"/>
                </mxCell>
                <mxCell id="13" value="- mostrarEmparejamientos(): void" style="text;strokeColor=none;fillColor=none;align=left;verticalAlign=top;spacingLeft=4;spacingRight=4;overflow=hidden;rotatable=0;points=[[0,0.5],[1,0.5]];portConstraint=eastwest;whiteSpace=wrap;html=1;" vertex="1" parent="12">
                    <mxGeometry y="26" width="250" height="34" as="geometry"/>
                </mxCell>
                <mxCell id="14" value="- crearEmparejamiento(String jugador1, String jugador2): void" style="text;strokeColor=none;fillColor=none;align=left;verticalAlign=top;spacingLeft=4;spacingRight=4;overflow=hidden;rotatable=0;points=[[0,0.5],[1,0.5]];portConstraint=eastwest;whiteSpace=wrap;html=1;" vertex="1" parent="12">
                    <mxGeometry y="60" width="250" height="50" as="geometry"/>
                </mxCell>
                <mxCell id="15" value="- borrarEmparejamientos(): void" style="text;strokeColor=none;fillColor=none;align=left;verticalAlign=top;spacingLeft=4;spacingRight=4;overflow=hidden;rotatable=0;points=[[0,0.5],[1,0.5]];portConstraint=eastwest;whiteSpace=wrap;html=1;" vertex="1" parent="12">
                    <mxGeometry y="110" width="250" height="30" as="geometry"/>
                </mxCell>
                <mxCell id="16" value="- emparejarAleatoriamente(): void" style="text;strokeColor=none;fillColor=none;align=left;verticalAlign=top;spacingLeft=4;spacingRight=4;overflow=hidden;rotatable=0;points=[[0,0.5],[1,0.5]];portConstraint=eastwest;whiteSpace=wrap;html=1;" vertex="1" parent="12">
                    <mxGeometry y="140" width="250" height="30" as="geometry"/>
                </mxCell>
                <mxCell id="17" value="- Emparejamiento(): " style="text;strokeColor=none;fillColor=none;align=left;verticalAlign=top;spacingLeft=4;spacingRight=4;overflow=hidden;rotatable=0;points=[[0,0.5],[1,0.5]];portConstraint=eastwest;whiteSpace=wrap;html=1;" vertex="1" parent="12">
                    <mxGeometry y="170" width="250" height="26" as="geometry"/>
                </mxCell>
            </root>
        </mxGraphModel>
    </diagram>
</mxfile>